<?xml version="1.0" standalone="no"?>
<!DOCTYPE svg PUBLIC "-//W3C//DTD SVG 20010904//EN"
 "http://www.w3.org/TR/2001/REC-SVG-20010904/DTD/svg10.dtd">
<svg version="1.0" xmlns="http://www.w3.org/2000/svg"
 width="512.000000pt" height="512.000000pt" viewBox="0 0 512.000000 512.000000"
 preserveAspectRatio="xMidYMid meet">
<metadata>
Created by potrace 1.11, written by Peter Selinger 2001-2013
</metadata>
<g transform="translate(0.000000,512.000000) scale(0.100000,-0.100000)"
fill="#000000" stroke="none">
<path d="M1273 5107 c-56 -31 -67 -63 -79 -227 -10 -150 -13 -187 -18 -285 -4
-55 -8 -119 -11 -141 -3 -23 -7 -70 -10 -105 -7 -111 -17 -242 -22 -299 -2
-30 -4 -62 -4 -70 0 -48 -15 -86 -55 -145 -162 -237 -325 -637 -395 -974 -22
-108 -24 -119 -33 -191 -4 -30 -9 -66 -11 -80 -4 -25 -14 -128 -21 -204 -5
-61 -5 -352 0 -426 13 -188 41 -382 77 -530 12 -47 22 -93 24 -102 10 -49 81
-261 121 -360 25 -62 74 -169 110 -237 35 -68 62 -127 58 -130 -3 -3 -74 -6
-157 -6 -170 -1 -209 -12 -251 -69 -48 -64 -52 -119 -14 -195 17 -34 35 -53
69 -71 45 -24 54 -25 213 -24 91 0 169 4 172 7 4 4 7 93 8 199 1 133 6 205 15
233 64 185 264 282 444 215 l57 -21 57 21 c75 28 161 28 235 0 l56 -21 64 22
c142 48 289 5 383 -111 63 -77 75 -133 75 -352 0 -143 3 -188 13 -189 56 -4
231 -3 237 1 5 3 10 92 11 199 1 164 5 201 21 244 70 184 263 274 443 206 l55
-20 56 21 c76 28 162 28 237 0 l57 -21 56 21 c137 51 286 10 384 -104 64 -76
73 -115 75 -339 1 -109 5 -200 9 -204 10 -10 329 -9 356 1 72 28 119 91 122
163 1 49 -9 80 -39 121 -44 58 -70 65 -250 66 -90 1 -163 4 -163 8 0 3 27 57
59 120 78 149 122 252 181 428 63 189 122 446 136 595 2 28 7 70 10 95 11 86
14 156 14 305 1 182 -5 280 -24 450 -4 37 -40 244 -50 290 -31 141 -111 400
-155 499 -10 22 -31 70 -47 106 -42 94 -134 264 -192 353 -41 63 -50 85 -51
124 -2 61 -11 192 -27 383 -3 36 -7 90 -9 120 -12 182 -15 220 -19 270 -3 30
-8 91 -11 135 -10 166 -22 203 -76 231 -15 7 -48 14 -72 14 -54 0 -49 4 -381
-273 -278 -232 -256 -219 -326 -190 -18 7 -14 6 -135 38 -149 39 -211 46 -375
46 -183 0 -367 -31 -516 -87 l-61 -23 -259 216 c-336 280 -326 273 -383 273
-25 -1 -56 -6 -68 -13z m795 -1383 c149 -42 282 -172 327 -321 37 -120 21
-267 -41 -378 -61 -108 -198 -208 -319 -233 -55 -12 -196 -9 -217 4 -7 5 -21
10 -32 11 -39 6 -138 68 -186 116 -131 130 -176 312 -120 485 26 80 59 132
125 198 45 46 175 125 175 108 0 -4 6 -2 13 5 8 6 36 13 63 16 27 4 50 8 52
10 7 7 108 -6 160 -21z m1253 -3 c84 -26 134 -57 198 -119 193 -189 193 -491
-1 -681 -159 -156 -403 -182 -593 -63 -213 134 -284 423 -157 642 70 122 206
217 337 236 22 4 41 8 43 9 9 8 125 -8 173 -24z m-728 -1031 c15 0 335 -319
352 -351 18 -35 13 -68 -20 -125 -15 -27 -41 -71 -57 -99 -163 -286 -266 -451
-288 -462 -48 -24 -35 -43 -353 506 -93 160 -98 142 100 343 160 162 211 203
241 193 8 -3 19 -5 25 -5z"/>
<path d="M1965 3409 c-115 -15 -178 -86 -178 -199 0 -93 43 -156 133 -192 99
-40 232 29 261 134 39 145 -72 277 -216 257z"/>
<path d="M3110 3410 c-116 -15 -189 -106 -177 -220 3 -26 12 -60 20 -76 59
-113 225 -140 319 -53 71 67 83 184 28 265 -43 64 -112 94 -190 84z"/>
<path d="M1332 741 c-36 -10 -88 -57 -107 -98 -16 -33 -18 -67 -18 -274 0
-231 0 -237 24 -280 35 -63 87 -91 165 -87 70 4 120 34 146 87 l15 31 24 -37
c39 -59 71 -77 147 -81 58 -3 72 0 102 20 19 13 46 40 59 61 l24 37 15 -31
c52 -107 230 -120 300 -22 33 47 38 90 37 323 -1 254 -3 263 -78 323 -31 25
-47 31 -94 32 -78 3 -131 -27 -163 -89 l-18 -37 -23 41 c-32 57 -80 84 -149
84 -72 0 -125 -26 -153 -75 -25 -44 -33 -48 -42 -20 -8 26 -54 71 -85 83 -32
13 -98 18 -128 9z"/>
<path d="M2987 741 c-37 -8 -93 -54 -114 -94 -15 -28 -17 -65 -17 -272 0 -211
2 -244 18 -277 28 -57 79 -91 147 -96 73 -5 122 17 162 75 l31 43 12 -28 c26
-60 84 -92 168 -92 63 0 108 26 145 83 l25 37 11 -27 c16 -38 71 -81 112 -89
90 -17 167 16 204 87 18 37 20 59 20 277 0 267 -4 288 -67 340 -86 71 -227 40
-268 -60 l-13 -29 -27 44 c-35 55 -71 77 -139 83 -71 6 -132 -25 -163 -84
l-22 -42 -22 37 c-43 73 -117 104 -203 84z"/>
</g>
</svg>
